<svg width="17" height="17" viewBox="0 0 17 17" fill="none" xmlns="http://www.w3.org/2000/svg">
<path fill-rule="evenodd" clip-rule="evenodd" d="M8.49996 0.935188C9.07527 0.935188 9.54163 1.37565 9.54163 1.91898V7.82176H15.7916C16.3669 7.82176 16.8333 8.26221 16.8333 8.80556C16.8333 9.34891 16.3669 9.78936 15.7916 9.78936H9.54163V15.6921C9.54163 16.2355 9.07527 16.6759 8.49996 16.6759C7.92465 16.6759 7.45829 16.2355 7.45829 15.6921V9.78936H1.20829C0.633001 9.78936 0.166626 9.34891 0.166626 8.80556C0.166626 8.26221 0.633001 7.82176 1.20829 7.82176H7.45829V1.91898C7.45829 1.37565 7.92465 0.935188 8.49996 0.935188Z" fill="#5B5B5B"/>
</svg>
